<?xml version="1.0" encoding="UTF-8" standalone="no"?>
<svg
   xmlns:dc="http://purl.org/dc/elements/1.1/"
   xmlns:cc="http://creativecommons.org/ns#"
   xmlns:rdf="http://www.w3.org/1999/02/22-rdf-syntax-ns#"
   xmlns:svg="http://www.w3.org/2000/svg"
   xmlns="http://www.w3.org/2000/svg"
   xmlns:sodipodi="http://sodipodi.sourceforge.net/DTD/sodipodi-0.dtd"
   xmlns:inkscape="http://www.inkscape.org/namespaces/inkscape"
   width="200mm"
   height="200mm"
   viewBox="0 0 200 200"
   version="1.1"
   id="svg8"
   inkscape:version="1.0 (4035a4f, 2020-05-01)"
   sodipodi:docname="riicc.svg">
  <defs
     id="defs2" />
  <sodipodi:namedview
     id="base"
     pagecolor="#ffffff"
     bordercolor="#666666"
     borderopacity="1.0"
     inkscape:pageopacity="0.0"
     inkscape:pageshadow="2"
     inkscape:zoom="0.35"
     inkscape:cx="400"
     inkscape:cy="574.99443"
     inkscape:document-units="mm"
     inkscape:current-layer="layer2"
     inkscape:document-rotation="0"
     showgrid="false"
     inkscape:window-width="1252"
     inkscape:window-height="965"
     inkscape:window-x="0"
     inkscape:window-y="23"
     inkscape:window-maximized="0" />
  <metadata
     id="metadata5">
    <rdf:RDF>
      <cc:Work
         rdf:about="">
        <dc:format>image/svg+xml</dc:format>
        <dc:type
           rdf:resource="http://purl.org/dc/dcmitype/StillImage" />
        <dc:title />
      </cc:Work>
    </rdf:RDF>
  </metadata>
  <g
     inkscape:groupmode="layer"
     id="layer3"
     inkscape:label="blue"
     style="display:inline">
    <rect
       style="fill:#62abff;fill-opacity:1;stroke-width:2.64583;stroke-linecap:round;stroke-linejoin:round"
       id="rect951"
       width="200"
       height="200"
       x="-1.7763568e-15"
       y="0" />
  </g>
  <g
     inkscape:groupmode="layer"
     id="layer2"
     inkscape:label="text"
     style="display:inline">
    <g
       style="font-style:normal;font-variant:normal;font-weight:normal;font-stretch:normal;font-size:149.573px;line-height:1.25;font-family:Vagabond;-inkscape-font-specification:Vagabond;fill:#3e3f40;fill-opacity:1;stroke:none;stroke-width:3.73935"
       id="text955"
       aria-label="R">
      <path
         id="path864"
         style="font-style:normal;font-variant:normal;font-weight:normal;font-stretch:normal;font-family:Vagabond;-inkscape-font-specification:Vagabond;fill:#3e3f40;fill-opacity:1;stroke-width:3.73935"
         d="m 76.835239,101.31378 q -1.047011,1.49573 -2.99146,1.49573 H 57.39075 q -1.196584,0 -1.944449,-0.74787 -0.598292,-0.89743 -1.346157,-2.542737 -1.645303,-6.581212 -3.290606,-13.311997 -2.841887,-10.170963 -4.636763,-13.760715 -1.645303,-3.739325 -4.636763,-7.47865 -1.346157,-1.794876 -2.99146,-2.692314 -1.49573,-1.047011 -3.589752,-1.047011 -1.047011,0 -1.645303,0.149573 -4.935909,1.645303 -8.076942,6.431639 -1.047011,1.794876 -1.49573,3.888898 -0.299146,1.944449 -0.299146,4.935909 0,5.98292 2.094022,15.256445 2.094022,9.27353 2.243595,10.02139 -0.299146,0.89744 -0.598292,0.89744 H 5.3393462 q -1.944449,-0.29915 -2.393168,-1.04701 -0.299146,-0.74787 -0.448719,-1.34616 -0.149573,-0.747864 -0.149573,-1.495729 L 1.0017292,72.595764 0.55301025,48.364938 0.70258325,38.044401 1.0017292,23.087101 q 0,-3.290606 0.149573,-6.581212 0.299146,-3.440179 0.897438,-8.9743795 0.747865,-4.6367629 1.047011,-6.2820659 0.448719,-1.64530298 1.346157,-3.8888979 0.598292,-0.747865 2.393168,-1.047011 H 49.762527 q 6.730785,0 12.414558,3.58975192 5.833347,3.58975198 8.076942,9.87181788 0.747865,1.4957295 1.196584,4.1880435 0.448719,2.692314 0.448719,4.935909 0,4.935909 -1.794876,8.97438 -0.897438,3.440179 -3.739325,7.47865 -1.645303,2.393168 -5.534201,7.179504 -3.888897,3.888898 -7.628222,7.777796 0.299146,0.747865 1.047011,2.094022 0.897438,1.196584 1.794876,2.243595 3.888897,4.188044 6.431638,7.47865 3.440179,4.337617 5.534201,8.226515 2.99146,6.431639 4.48719,10.170964 2.393168,6.132492 3.290606,11.068401 0.448719,2.243595 0.747865,4.636763 0.299146,2.393168 0.299146,5.085483 z M 51.108684,24.582831 q 0.149573,-0.598292 0.149573,-1.944449 0,-2.542741 -1.047011,-4.48719 -1.047011,-2.094022 -3.440179,-3.440179 -1.346157,-0.598292 -2.542741,-0.897438 -1.047011,-0.448719 -2.841887,-0.897438 -1.794876,-0.149573 -3.141033,-0.149573 -1.196584,-0.149573 -2.094022,-0.149573 -5.534201,0 -9.273526,2.094022 -1.346157,0.747865 -2.542741,2.393168 -1.047011,1.49573 -1.794876,3.141033 -1.196584,3.888898 -1.196584,7.329077 l -0.747865,10.47011 q 0,1.794876 0,3.589752 0.149573,1.794876 0.747865,3.141033 0.897438,1.196584 2.692314,1.196584 2.99146,-0.897438 4.935909,-1.794876 2.094022,-0.897438 4.636763,-2.542741 3.141033,-1.645303 6.282066,-4.038471 2.393168,-1.794876 5.98292,-4.786336 4.337617,-3.141033 5.235055,-8.226515 z" />
    </g>
    <g
       style="font-style:normal;font-variant:normal;font-weight:normal;font-stretch:normal;font-size:149.573px;line-height:1.25;font-family:Vagabond;-inkscape-font-specification:Vagabond;display:inline;fill:#3e3f40;fill-opacity:1;stroke:none;stroke-width:3.73936"
       id="text955-4"
       aria-label="i">
      <path
         id="path861"
         style="font-style:normal;font-variant:normal;font-weight:normal;font-stretch:normal;font-family:Vagabond;-inkscape-font-specification:Vagabond;fill:#3e3f40;fill-opacity:1;stroke-width:3.73936"
         d="m 98.965149,1.8799266 q 0.747865,1.794876 0.747865,3.7393249 0,2.692314 -1.346157,4.7863355 -2.542741,3.589752 -7.628223,3.589752 -1.794876,0 -3.440179,-0.448719 -2.094022,-0.299146 -3.888898,-2.094022 -1.794876,-1.9444485 -1.944449,-3.2906055 -0.149573,-1.49573 -0.149573,-2.692314 0,-4.63676291 4.038471,-7.4786499 2.243595,-1.346157 5.384628,-1.346157 3.739325,0 5.683774,1.794876 1.944449,1.645303 2.542741,3.440179 z m 1.196581,99.4660434 q -0.897435,1.34616 -1.346154,1.49573 -0.299146,0 -1.794876,0.14957 -1.346157,0.14958 -3.589752,0.14958 H 82.811265 q -1.645303,0 -2.542741,-1.19659 -0.747865,-1.34615 -1.047011,-2.991458 -0.299146,-1.645303 -0.299146,-3.440179 l -0.448719,-8.97438 V 67.243327 L 79.07194,41.217625 v -5.534201 q 0.448719,-4.337617 0.897438,-8.824807 0.149573,-1.346157 1.49573,-2.243595 1.346157,-0.897438 2.841887,-1.346157 2.542741,-0.448719 4.935909,-0.448719 1.49573,0 2.841887,0.149573 1.49573,0 2.99146,0 1.794876,0.598292 1.944449,1.49573 0,1.196584 0,2.243595 0,1.047011 -0.149573,2.393168 0,1.196584 0,1.645303 0,2.841887 -0.299146,4.188044 0,6.132493 -0.149573,9.871818 -0.598292,15.106873 -0.598292,16.901749 0,7.179504 0.598292,12.713705 0.598292,5.384628 3.290606,20.940219 z" />
    </g>
    <g
       style="font-style:normal;font-variant:normal;font-weight:normal;font-stretch:normal;font-size:176.116px;line-height:1.25;font-family:Vagabond;-inkscape-font-specification:Vagabond;display:inline;fill:#fefeff;fill-opacity:1;stroke:none;stroke-width:4.40295"
       id="text955-4-5"
       aria-label="i">
      <path
         id="path858"
         style="font-style:normal;font-variant:normal;font-weight:normal;font-stretch:normal;font-family:Vagabond;-inkscape-font-specification:Vagabond;fill:#fefeff;fill-opacity:1;stroke-width:4.40295"
         d="m 60.908825,81.428176 q 0.88058,2.113392 0.88058,4.4029 0,3.170088 -1.585044,5.635712 -2.993972,4.226784 -8.981916,4.226784 -2.113392,0 -4.050668,-0.528348 -2.465624,-0.352232 -4.579016,-2.465624 -2.113392,-2.289508 -2.289508,-3.874552 -0.176116,-1.76116 -0.176116,-3.170088 0,-5.459595 4.755132,-8.805799 2.64174,-1.585044 6.340176,-1.585044 4.4029,0 6.692408,2.113392 2.289508,1.937276 2.993972,4.050667 z m 1.408928,117.117134 q -1.056696,1.58505 -1.585044,1.76116 -0.352232,0 -2.113392,0.17612 -1.585044,0.17612 -4.226784,0.17612 H 41.888297 q -1.937276,0 -2.993972,-1.40893 -0.88058,-1.58505 -1.232812,-3.52232 -0.352232,-1.93728 -0.352232,-4.05067 l -0.528348,-10.56696 v -22.71896 l 0.704464,-30.64419 v -6.51629 q 0.528348,-5.10736 1.056696,-10.39084 0.176116,-1.58505 1.76116,-2.64174 1.585044,-1.0567 3.346204,-1.58505 2.993972,-0.52834 5.811828,-0.52834 1.76116,0 3.346204,0.17611 1.76116,0 3.52232,0 2.113392,0.70447 2.289508,1.76116 0,1.40893 0,2.64174 0,1.23281 -0.176116,2.81786 0,1.40893 0,1.93727 0,3.34621 -0.352232,4.93125 0,7.22076 -0.176116,11.62366 -0.704464,17.78771 -0.704464,19.90111 0,8.45356 0.704464,14.96986 0.704464,6.34017 3.874552,24.65623 z" />
    </g>
    <g
       style="font-style:normal;font-variant:normal;font-weight:normal;font-stretch:normal;font-size:176.116px;line-height:1.25;font-family:Vagabond;-inkscape-font-specification:Vagabond;display:inline;fill:#fefeff;fill-opacity:1;stroke:none;stroke-width:4.40296"
       id="text955-4-5-1"
       aria-label="c">
      <path
         id="path855"
         style="font-style:normal;font-variant:normal;font-weight:normal;font-stretch:normal;font-family:Vagabond;-inkscape-font-specification:Vagabond;fill:#fefeff;fill-opacity:1;stroke-width:4.40296"
         d="m 136.96638,176.78405 q 0,7.74911 -3.3462,14.08928 -3.3462,6.34018 -10.03861,9.68638 -3.69844,1.76116 -8.8058,2.28951 -4.93125,0.70447 -11.09531,0.70447 -7.572988,0 -14.265396,-4.93125 -6.692408,-5.10737 -10.743076,-12.68035 -2.993972,-5.98795 -4.579015,-12.85647 -1.408928,-6.86853 -1.408928,-14.61763 0,-6.51629 1.056696,-12.85647 1.056695,-8.45356 3.874551,-15.4982 2.993972,-7.22076 8.629684,-13.38482 5.811828,-6.34018 13.560932,-9.51026 7.749102,-3.17009 16.907132,-3.17009 l 5.98795,1.05669 q 5.45959,1.93728 9.15803,5.4596 4.4029,4.22678 4.4029,9.33415 0.35223,3.52232 -1.0567,6.34017 -1.23281,2.81786 -4.4029,5.63572 -2.64174,1.58504 -4.22678,1.05669 -0.88058,-0.70446 -1.58504,-1.76116 -0.70447,-1.05669 -1.40893,-2.46562 -0.70447,-1.40893 -1.40893,-2.28951 -1.40893,-1.40893 -2.28951,-1.93728 -0.70446,-0.70446 -2.28951,-1.23281 -1.58504,-0.70446 -2.99397,-1.23281 -1.76116,-0.35223 -2.81785,-0.35223 -3.52232,0 -6.5163,1.93727 -2.99397,1.93728 -5.98794,5.28348 -3.52232,5.28348 -5.28348,11.44754 -1.585044,6.16406 -1.585044,13.38482 0,1.58504 0,3.17009 0.352232,2.11339 0.352232,3.17008 1.056696,6.69241 3.698436,10.9192 3.346204,5.45959 8.981916,7.7491 4.05067,1.58504 8.62968,1.58504 7.92522,0 13.03259,-4.4029 4.22678,-2.99397 5.81183,-7.39687 l 1.05669,-1.58504 q 1.0567,0 1.40893,1.05669 1.76116,3.34621 1.76116,7.04464 -0.17612,1.23282 -0.17612,1.76116 z" />
    </g>
    <g
       style="font-style:normal;font-variant:normal;font-weight:normal;font-stretch:normal;font-size:176.116px;line-height:1.25;font-family:Vagabond;-inkscape-font-specification:Vagabond;display:inline;fill:#fefeff;fill-opacity:1;stroke:none;stroke-width:4.40296"
       id="text955-4-5-1-4"
       aria-label="c">
      <path
         id="path852"
         style="font-style:normal;font-variant:normal;font-weight:normal;font-stretch:normal;font-family:Vagabond;-inkscape-font-specification:Vagabond;fill:#fefeff;fill-opacity:1;stroke-width:4.40296"
         d="m 202.89836,175.68551 q 0,7.74911 -3.34621,14.08928 -3.3462,6.34018 -10.03861,9.68638 -3.69844,1.76116 -8.8058,2.28951 -4.93125,0.70446 -11.09531,0.70446 -7.57299,0 -14.26539,-4.93124 -6.69241,-5.10737 -10.74308,-12.68035 -2.99397,-5.98795 -4.57901,-12.85647 -1.40893,-6.86853 -1.40893,-14.61763 0,-6.51629 1.05669,-12.85647 1.0567,-8.45357 3.87455,-15.49821 2.99398,-7.22075 8.62969,-13.38481 5.81183,-6.34018 13.56093,-9.51027 7.7491,-3.17008 16.90714,-3.17008 l 5.98794,1.05669 q 5.4596,1.93728 9.15803,5.4596 4.4029,4.22678 4.4029,9.33415 0.35223,3.52232 -1.05669,6.34017 -1.23282,2.81786 -4.4029,5.63571 -2.64174,1.58505 -4.22679,1.0567 -0.88058,-0.70446 -1.58504,-1.76116 -0.70447,-1.0567 -1.40893,-2.46562 -0.70446,-1.40893 -1.40893,-2.28951 -1.40893,-1.40893 -2.28951,-1.93728 -0.70446,-0.70446 -2.2895,-1.23281 -1.58505,-0.70446 -2.99398,-1.23281 -1.76116,-0.35223 -2.81785,-0.35223 -3.52232,0 -6.51629,1.93727 -2.99398,1.93728 -5.98795,5.28348 -3.52232,5.28348 -5.28348,11.44754 -1.58504,6.16406 -1.58504,13.38482 0,1.58504 0,3.17009 0.35223,2.11339 0.35223,3.17008 1.0567,6.69241 3.69844,10.9192 3.3462,5.45959 8.98191,7.7491 4.05067,1.58504 8.62969,1.58504 7.92522,0 13.03258,-4.4029 4.22678,-2.99397 5.81183,-7.39687 l 1.05669,-1.58504 q 1.0567,0 1.40893,1.05669 1.76116,3.34621 1.76116,7.04464 -0.17611,1.23282 -0.17611,1.76116 z" />
    </g>
  </g>
</svg>
